<?xml version="1.0" encoding="UTF-8" standalone="no"?>
<!-- Created with Inkscape (http://www.inkscape.org/) -->

<svg
   xmlns:dc="http://purl.org/dc/elements/1.1/"
   xmlns:cc="http://creativecommons.org/ns#"
   xmlns:rdf="http://www.w3.org/1999/02/22-rdf-syntax-ns#"
   xmlns:svg="http://www.w3.org/2000/svg"
   xmlns="http://www.w3.org/2000/svg"
   xmlns:sodipodi="http://sodipodi.sourceforge.net/DTD/sodipodi-0.dtd"
   xmlns:inkscape="http://www.inkscape.org/namespaces/inkscape"
   width="301.18109"
   height="194.88188"
   id="svg2"
   version="1.1"
   inkscape:version="0.48.4 r9939"
   sodipodi:docname="vanderson-bartelli-logo.svg">
  <defs
     id="defs4" />
  <sodipodi:namedview
     id="base"
     pagecolor="#ffffff"
     bordercolor="#666666"
     borderopacity="1.0"
     inkscape:pageopacity="0.0"
     inkscape:pageshadow="2"
     inkscape:zoom="2"
     inkscape:cx="176.68148"
     inkscape:cy="100.97212"
     inkscape:document-units="px"
     inkscape:current-layer="layer3"
     showgrid="false"
     showguides="true"
     inkscape:window-width="1364"
     inkscape:window-height="747"
     inkscape:window-x="0"
     inkscape:window-y="0"
     inkscape:window-maximized="0"
     units="mm"
     inkscape:showpageshadow="false"
     inkscape:guide-bbox="true"
     width="8.56cm">
    <inkscape:grid
       type="axonomgrid"
       id="grid2989"
       units="mm"
       empspacing="5"
       visible="true"
       enabled="true"
       snapvisiblegridlinesonly="true" />
  </sodipodi:namedview>
  <metadata
     id="metadata7">
    <rdf:RDF>
      <cc:Work
         rdf:about="">
        <dc:format>image/svg+xml</dc:format>
        <dc:type
           rdf:resource="http://purl.org/dc/dcmitype/StillImage" />
        <dc:title />
      </cc:Work>
    </rdf:RDF>
  </metadata>
  <g
     inkscape:label="v1"
     inkscape:groupmode="layer"
     id="layer1"
     transform="translate(0,-857.47899)"
     style="display:none">
    <text
       xml:space="preserve"
       style="font-size:21.10138321px;font-style:normal;font-weight:normal;line-height:125%;letter-spacing:0px;word-spacing:0px;fill:#666666;fill-opacity:1;stroke:none;font-family:Sans"
       x="139.57507"
       y="929.82843"
       id="text3890"
       sodipodi:linespacing="125%"><tspan
         sodipodi:role="line"
         x="139.57507"
         y="929.82843"
         style="font-style:normal;font-variant:normal;font-weight:500;font-stretch:normal;letter-spacing:2.6376729px;fill:#666666;stroke:none;font-family:Fashion Fetish Small Caps;-inkscape-font-specification:Fashion Fetish Small Caps"
         id="tspan3009">Vanderson</tspan></text>
    <text
       xml:space="preserve"
       style="font-size:21.10138321px;font-style:normal;font-weight:normal;line-height:100%;letter-spacing:0px;word-spacing:0px;fill:#666666;fill-opacity:1;stroke:none;font-family:Sans"
       x="137.87656"
       y="960.18024"
       id="text3890-0"
       sodipodi:linespacing="100%"><tspan
         sodipodi:role="line"
         x="137.87656"
         y="960.18024"
         style="font-style:normal;font-variant:normal;font-weight:500;font-stretch:normal;line-height:100%;letter-spacing:2.6376729px;fill:#666666;stroke:none;font-family:Fashion Fetish Small Caps;-inkscape-font-specification:Fashion Fetish Small Caps"
         id="tspan3009-3">Bartteli</tspan></text>
    <text
       xml:space="preserve"
       style="font-size:21.10138321px;font-style:normal;font-weight:normal;line-height:125%;letter-spacing:1.97471118px;word-spacing:0px;fill:#666666;fill-opacity:1;stroke:none;font-family:Sans"
       x="138.57834"
       y="1001.5102"
       id="text3045"
       sodipodi:linespacing="125%"><tspan
         sodipodi:role="line"
         id="tspan3047"
         x="138.57834"
         y="1001.5102"
         style="font-size:12.6608305px;letter-spacing:1.97471118px;fill:#666666;stroke:none;font-family:Fashion Fetish Light;-inkscape-font-specification:Fashion Fetish Light">Engenheiro Civil</tspan></text>
    <path
       id="path4310"
       style="fill:#666666;stroke:#ffffff;stroke-width:1.08390355;stroke-linecap:butt;stroke-linejoin:miter;stroke-miterlimit:4;stroke-opacity:1;stroke-dasharray:none;stroke-dashoffset:0"
       d="m 53.685718,936.7093 -17.628014,70.7993 M 68.315084,922.60676 53.609829,936.83299 16.02428,926.7936 m 14.48967,-14.48393 19.239285,81.29273 m -19.347991,-81.41904 38.321775,10.15527 -18.969274,71.47016 -13.98745,14.17881 -20.118943,-81.14615 z"
       inkscape:connector-curvature="0" />
    <path
       id="path4366"
       style="fill:#666666;stroke:#ffffff;stroke-width:1;stroke-linecap:butt;stroke-linejoin:miter;stroke-miterlimit:4;stroke-opacity:1;stroke-dasharray:none;stroke-dashoffset:0"
       d="m 90.625,987.69665 -13.6875,3.43755 m -0.3125,-35.62505 33.625,-9.125 m 3.25015,-0.73054 0,17.14734 m -3.35875,-16.79379 0,17.50089 m -0.35356,-37.1231 -19.259533,5.16058 m -13.93537,23.56806 13.863781,14.11378 36.404622,-9.75459 m -13.53796,22.59683 13.72229,14.91549 m -36.416344,-9.24215 -0.08839,18.10295 M 76.0625,917.07165 l 14.46875,14.46875 0.08839,56.18606 22.92104,-5.98858 -0.0331,-18.69831 -3.42189,0.93113 -15.235426,-13.54412 0,-38.27216 m 0.02474,-0.20777 -18.65024,5.25181 0.4375,73.78354 14.26417,15.514 36.065976,-9.6637 0,-37.63795 -13.73914,-13.73914 -3.1755,0.85087 0,-19.46187 z m -4.35495,19.28536 0,38.02285 m 0,-0.55915 0,37.26619 m 23.037376,-60.4154 0,36.90451"
       inkscape:connector-curvature="0" />
  </g>
  <g
     inkscape:groupmode="layer"
     id="layer3"
     inkscape:label="v2"
     style="display:inline"
     transform="translate(0,3.6141695)">
    <g
       id="g3520"
       transform="translate(5.0392516,-1.5)"
       style="fill:#666666">
      <path
         inkscape:connector-curvature="0"
         d="M 124.90791,42.933044 103.82994,127.5884 M 142.40038,26.070509 124.81718,43.080941 79.875789,31.076752 M 97.201226,13.758185 120.20582,110.96063 M 97.071252,13.607156 142.89293,25.749904 120.2112,111.20741 103.48628,128.16115 79.429885,31.133967 z"
         style="fill:#666666;stroke:#ffffff;stroke-width:1.29603338;stroke-linecap:butt;stroke-linejoin:miter;stroke-miterlimit:4;stroke-opacity:1;stroke-dasharray:none;stroke-dashoffset:0"
         id="path4310-9" />
      <path
         inkscape:connector-curvature="0"
         d="m 169.07655,103.89907 -16.36627,4.11032 m -0.37367,-42.597193 40.20573,-10.910845 m 3.88623,-0.873517 0,20.503233 m -4.01609,-20.080486 0,20.925973 m -0.42276,-44.38843 -23.02879,6.170552 M 152.29829,64.93922 168.87533,81.815188 212.40467,70.15154 m -16.18747,27.01923 16.40786,17.83458 m -43.54333,-11.05092 -0.10571,21.64587 m -17.312,-106.148172 17.30041,17.300416 0.1057,67.182176 27.4069,-7.160599 -0.0396,-22.357736 -4.09159,1.113364 -18.21713,-16.194832 0,-45.762365 m 0.0296,-0.248433 -22.30025,6.279637 0.52312,88.223644 17.05579,18.55023 43.12441,-11.55498 0,-45.004025 -16.42801,-16.428014 -3.79698,1.017392 0,-23.270736 z m -5.20724,23.05968 0,45.464259 m 0,-0.66858 0,44.559522 m 27.54598,-72.239233 0,44.127051"
         style="fill:#666666;stroke:#ffffff;stroke-width:1.19570911;stroke-linecap:butt;stroke-linejoin:miter;stroke-miterlimit:4;stroke-opacity:1;stroke-dasharray:none;stroke-dashoffset:0"
         id="path4366-1" />
    </g>
    <text
       xml:space="preserve"
       style="font-size:21.10138321px;font-style:normal;font-weight:normal;line-height:125%;letter-spacing:2.66000009px;word-spacing:0px;fill:#666666;fill-opacity:1;stroke:#808080;display:inline;font-family:Sans"
       x="20.982498"
       y="155.3804"
       id="text3890-5"
       sodipodi:linespacing="125%"><tspan
         sodipodi:role="line"
         x="20.982498"
         y="155.3804"
         style="font-style:normal;font-variant:normal;font-weight:500;font-stretch:normal;letter-spacing:2.51999998px;fill:#666666;stroke:#808080;font-family:Fashion Fetish Small Caps;-inkscape-font-specification:Fashion Fetish Small Caps"
         id="tspan3009-4">Vanderson Bartteli</tspan></text>
    <text
       xml:space="preserve"
       style="font-size:21.10138321px;font-style:normal;font-weight:normal;line-height:100%;letter-spacing:0px;word-spacing:0px;fill:#808080;fill-opacity:1;stroke:none;display:inline;font-family:Sans"
       x="183.16266"
       y="157.74968"
       id="text3890-0-9"
       sodipodi:linespacing="100%"><tspan
         sodipodi:role="line"
         x="183.16266"
         y="157.74968"
         style="font-style:normal;font-variant:normal;font-weight:500;font-stretch:normal;line-height:100%;letter-spacing:2.6376729px;fill:#808080;stroke:none;font-family:Fashion Fetish Small Caps;-inkscape-font-specification:Fashion Fetish Small Caps"
         id="tspan3009-3-2" /></text>
    <text
       xml:space="preserve"
       style="font-size:21.10138321px;font-style:normal;font-weight:normal;line-height:125%;letter-spacing:1.97471118px;word-spacing:0px;fill:#666666;fill-opacity:1;stroke:#808080;display:inline;font-family:Sans"
       x="77.771408"
       y="174.25552"
       id="text3045-5"
       sodipodi:linespacing="125%"><tspan
         sodipodi:role="line"
         id="tspan3047-7"
         x="77.771408"
         y="174.25552"
         style="font-size:12.6608305px;letter-spacing:1.97471118px;fill:#666666;stroke:#808080;font-family:Fashion Fetish Light;-inkscape-font-specification:Fashion Fetish Light">Engenheiro Civil</tspan></text>
  </g>
</svg>
